<svg xmlns="http://www.w3.org/2000/svg" viewBox="0 0 144 18">
  <path fill="#f5f5f5" d="M4.80 4.48Q5.09 4.48 5.21 4.60Q5.33 4.71 5.33 4.98L5.33 4.98L5.33 7.42L7.77 7.42Q8.04 7.42 8.15 7.54Q8.27 7.66 8.27 7.95L8.27 7.95Q8.27 8.24 8.15 8.36Q8.04 8.48 7.77 8.48L7.77 8.48L5.33 8.48L5.33 10.93Q5.33 11.20 5.21 11.31Q5.09 11.42 4.80 11.42L4.80 11.42Q4.51 11.42 4.39 11.31Q4.27 11.20 4.27 10.93L4.27 10.93L4.27 8.48L1.82 8.48Q1.55 8.48 1.44 8.36Q1.33 8.24 1.33 7.95L1.33 7.95Q1.33 7.66 1.44 7.54Q1.55 7.42 1.82 7.42L1.82 7.42L4.27 7.42L4.27 4.98Q4.27 4.71 4.39 4.60Q4.51 4.48 4.80 4.48L4.80 4.48ZM15.46 3.05Q16.14 3.05 16.14 3.66L16.14 3.66L16.14 8.63L17.41 8.63Q17.67 8.63 17.79 8.75Q17.90 8.87 17.90 9.16L17.90 9.16Q17.90 9.45 17.79 9.57Q17.67 9.69 17.41 9.69L17.41 9.69L16.14 9.69L16.14 11.44L17.17 11.44Q17.44 11.44 17.55 11.56Q17.66 11.68 17.66 11.97L17.66 11.97Q17.66 12.26 17.55 12.38Q17.44 12.50 17.17 12.50L17.17 12.50L13.81 12.50Q13.55 12.50 13.43 12.38Q13.32 12.26 13.32 11.97L13.32 11.97Q13.32 11.68 13.43 11.56Q13.55 11.44 13.81 11.44L13.81 11.44L14.97 11.44L14.97 9.69L11.23 9.69Q10.97 9.69 10.86 9.57Q10.74 9.45 10.74 9.16L10.74 9.16Q10.74 8.90 10.82 8.79L10.82 8.79L14.60 3.53Q14.77 3.29 14.97 3.17Q15.16 3.05 15.46 3.05L15.46 3.05ZM15.03 4.75L12.30 8.63L14.97 8.63L15.03 4.75ZM23.89 3.05Q24.74 3.05 25.46 3.45Q26.17 3.84 26.61 4.58L26.61 4.58Q27.21 5.61 27.21 7.23L27.21 7.23Q27.21 8.58 26.64 9.78Q26.06 10.98 24.81 11.79Q23.55 12.59 21.62 12.67L21.62 12.67Q21.41 12.68 21.29 12.53Q21.16 12.38 21.16 11.98L21.16 11.98Q21.16 11.74 21.24 11.64Q21.31 11.53 21.45 11.52L21.45 11.52Q23.53 11.41 24.65 10.45Q25.77 9.48 25.98 7.83L25.98 7.83Q25.58 8.36 24.98 8.65Q24.39 8.94 23.72 8.94L23.72 8.94Q22.86 8.94 22.17 8.57Q21.48 8.20 21.08 7.53Q20.69 6.86 20.69 5.98L20.69 5.98Q20.69 5.14 21.09 4.47Q21.48 3.80 22.21 3.43Q22.95 3.05 23.89 3.05L23.89 3.05ZM23.89 4.21Q23.30 4.21 22.85 4.43Q22.41 4.65 22.16 5.05Q21.92 5.45 21.92 5.98L21.92 5.98Q21.92 6.52 22.16 6.93Q22.40 7.34 22.84 7.56Q23.28 7.78 23.89 7.78L23.89 7.78Q24.46 7.78 24.91 7.57Q25.37 7.35 25.62 6.97Q25.88 6.59 25.88 6.10L25.88 6.10Q25.88 5.55 25.63 5.13Q25.38 4.70 24.93 4.45Q24.48 4.21 23.89 4.21L23.89 4.21ZM45.98 11.44Q46.25 11.44 46.36 11.56Q46.48 11.68 46.48 11.97L46.48 11.97Q46.48 12.26 46.36 12.38Q46.25 12.50 45.98 12.50L45.98 12.50L40.72 12.50Q40.45 12.50 40.34 12.38Q40.23 12.26 40.23 11.97L40.23 11.97Q40.23 11.68 40.34 11.56Q40.45 11.44 40.72 11.44L40.72 11.44L42.82 11.44L42.82 4.73L40.88 5.95Q40.74 6.02 40.63 6.02L40.63 6.02Q40.38 6.02 40.20 5.70L40.20 5.70Q40.09 5.52 40.09 5.34L40.09 5.34Q40.09 5.08 40.34 4.94L40.34 4.94L43.28 3.13Q43.44 3.03 43.59 3.03L43.59 3.03Q43.77 3.03 43.88 3.14Q43.99 3.26 43.99 3.46L43.99 3.46L43.99 11.44L45.98 11.44ZM55.52 3.23Q55.78 3.23 55.89 3.35Q56.01 3.47 56.01 3.76L56.01 3.76Q56.01 3.95 55.96 4.07L55.96 4.07L52.63 12.31Q52.56 12.49 52.41 12.58Q52.26 12.67 52.05 12.67L52.05 12.67Q51.77 12.67 51.59 12.56Q51.41 12.45 51.41 12.26L51.41 12.26Q51.41 12.15 51.45 12.06L51.45 12.06L54.63 4.29L50.93 4.29L50.93 5.43Q50.93 5.70 50.80 5.82Q50.66 5.94 50.34 5.94L50.34 5.94Q50.02 5.94 49.89 5.82Q49.76 5.70 49.76 5.43L49.76 5.43L49.76 3.76Q49.76 3.47 49.87 3.35Q49.98 3.23 50.25 3.23L50.25 3.23L55.52 3.23ZM65.11 3.23Q65.38 3.23 65.49 3.35Q65.60 3.47 65.60 3.76L65.60 3.76Q65.60 3.95 65.55 4.07L65.55 4.07L62.23 12.31Q62.16 12.49 62.00 12.58Q61.85 12.67 61.64 12.67L61.64 12.67Q61.36 12.67 61.18 12.56Q61.01 12.45 61.01 12.26L61.01 12.26Q61.01 12.15 61.05 12.06L61.05 12.06L64.23 4.29L60.52 4.29L60.52 5.43Q60.52 5.70 60.39 5.82Q60.26 5.94 59.94 5.94L59.94 5.94Q59.62 5.94 59.48 5.82Q59.35 5.70 59.35 5.43L59.35 5.43L59.35 3.76Q59.35 3.47 59.46 3.35Q59.58 3.23 59.84 3.23L59.84 3.23L65.11 3.23ZM84.30 3.23Q84.56 3.23 84.68 3.35Q84.79 3.47 84.79 3.76L84.79 3.76Q84.79 3.95 84.74 4.07L84.74 4.07L81.41 12.31Q81.34 12.49 81.19 12.58Q81.04 12.67 80.83 12.67L80.83 12.67Q80.55 12.67 80.37 12.56Q80.20 12.45 80.20 12.26L80.20 12.26Q80.20 12.15 80.23 12.06L80.23 12.06L83.41 4.29L79.71 4.29L79.71 5.43Q79.71 5.70 79.58 5.82Q79.45 5.94 79.13 5.94L79.13 5.94Q78.80 5.94 78.67 5.82Q78.54 5.70 78.54 5.43L78.54 5.43L78.54 3.76Q78.54 3.47 78.65 3.35Q78.77 3.23 79.03 3.23L79.03 3.23L84.30 3.23ZM91.05 3.05Q91.90 3.05 92.61 3.45Q93.33 3.84 93.77 4.58L93.77 4.58Q94.37 5.61 94.37 7.23L94.37 7.23Q94.37 8.58 93.79 9.78Q93.22 10.98 91.96 11.79Q90.71 12.59 88.77 12.67L88.77 12.67Q88.56 12.68 88.44 12.53Q88.32 12.38 88.32 11.98L88.32 11.98Q88.32 11.74 88.39 11.64Q88.47 11.53 88.61 11.52L88.61 11.52Q90.69 11.41 91.80 10.45Q92.92 9.48 93.14 7.83L93.14 7.83Q92.73 8.36 92.14 8.65Q91.55 8.94 90.88 8.94L90.88 8.94Q90.02 8.94 89.32 8.57Q88.63 8.20 88.24 7.53Q87.84 6.86 87.84 5.98L87.84 5.98Q87.84 5.14 88.24 4.47Q88.64 3.80 89.37 3.43Q90.10 3.05 91.05 3.05L91.05 3.05ZM91.05 4.21Q90.45 4.21 90.01 4.43Q89.56 4.65 89.32 5.05Q89.08 5.45 89.08 5.98L89.08 5.98Q89.08 6.52 89.32 6.93Q89.55 7.34 90.00 7.56Q90.44 7.78 91.05 7.78L91.05 7.78Q91.62 7.78 92.07 7.57Q92.52 7.35 92.78 6.97Q93.03 6.59 93.03 6.10L93.03 6.10Q93.03 5.55 92.79 5.13Q92.54 4.70 92.09 4.45Q91.64 4.21 91.05 4.21L91.05 4.21ZM103.10 3.05Q103.31 3.05 103.43 3.20Q103.55 3.34 103.55 3.74L103.55 3.74Q103.55 3.98 103.48 4.09Q103.41 4.20 103.27 4.20L103.27 4.20Q101.19 4.31 100.07 5.28Q98.95 6.24 98.73 7.90L98.73 7.90Q99.14 7.37 99.73 7.08Q100.33 6.79 101 6.79L101 6.79Q101.86 6.79 102.55 7.16Q103.24 7.52 103.64 8.20Q104.03 8.87 104.03 9.74L104.03 9.74Q104.03 10.59 103.63 11.25Q103.23 11.92 102.50 12.30Q101.77 12.67 100.83 12.67L100.83 12.67Q99.98 12.67 99.26 12.28Q98.55 11.89 98.11 11.15L98.11 11.15Q97.51 10.12 97.51 8.50L97.51 8.50Q97.51 7.15 98.08 5.95Q98.66 4.74 99.91 3.94Q101.16 3.14 103.10 3.05L103.10 3.05ZM100.83 7.95Q100.26 7.95 99.80 8.16Q99.35 8.38 99.10 8.75Q98.84 9.13 98.84 9.63L98.84 9.63Q98.84 10.17 99.09 10.60Q99.34 11.03 99.79 11.27Q100.23 11.52 100.83 11.52L100.83 11.52Q101.42 11.52 101.87 11.30Q102.31 11.08 102.55 10.68Q102.80 10.27 102.80 9.74L102.80 9.74Q102.80 9.20 102.56 8.80Q102.32 8.39 101.88 8.17Q101.44 7.95 100.83 7.95L100.83 7.95ZM112.70 3.05Q112.91 3.05 113.03 3.20Q113.15 3.34 113.15 3.74L113.15 3.74Q113.15 3.98 113.07 4.09Q113 4.20 112.86 4.20L112.86 4.20Q110.78 4.31 109.66 5.28Q108.55 6.24 108.33 7.90L108.33 7.90Q108.73 7.37 109.33 7.08Q109.92 6.79 110.59 6.79L110.59 6.79Q111.45 6.79 112.14 7.16Q112.84 7.52 113.23 8.20Q113.63 8.87 113.63 9.74L113.63 9.74Q113.63 10.59 113.23 11.25Q112.83 11.92 112.10 12.30Q111.37 12.67 110.42 12.67L110.42 12.67Q109.57 12.67 108.86 12.28Q108.14 11.89 107.70 11.15L107.70 11.15Q107.10 10.12 107.10 8.50L107.10 8.50Q107.10 7.15 107.68 5.95Q108.25 4.74 109.50 3.94Q110.76 3.14 112.70 3.05L112.70 3.05ZM110.42 7.95Q109.85 7.95 109.40 8.16Q108.95 8.38 108.69 8.75Q108.44 9.13 108.44 9.63L108.44 9.63Q108.44 10.17 108.68 10.60Q108.93 11.03 109.38 11.27Q109.83 11.52 110.42 11.52L110.42 11.52Q111.02 11.52 111.46 11.30Q111.91 11.08 112.15 10.68Q112.39 10.27 112.39 9.74L112.39 9.74Q112.39 9.20 112.15 8.80Q111.91 8.39 111.47 8.17Q111.03 7.95 110.42 7.95L110.42 7.95ZM119.83 3.05Q120.68 3.05 121.39 3.45Q122.11 3.84 122.55 4.58L122.55 4.58Q123.15 5.61 123.15 7.23L123.15 7.23Q123.15 8.58 122.57 9.78Q122 10.98 120.75 11.79Q119.49 12.59 117.55 12.67L117.55 12.67Q117.34 12.68 117.22 12.53Q117.10 12.38 117.10 11.98L117.10 11.98Q117.10 11.74 117.18 11.64Q117.25 11.53 117.39 11.52L117.39 11.52Q119.47 11.41 120.59 10.45Q121.70 9.48 121.92 7.83L121.92 7.83Q121.52 8.36 120.92 8.65Q120.33 8.94 119.66 8.94L119.66 8.94Q118.80 8.94 118.11 8.57Q117.41 8.20 117.02 7.53Q116.63 6.86 116.63 5.98L116.63 5.98Q116.63 5.14 117.02 4.47Q117.42 3.80 118.15 3.43Q118.88 3.05 119.83 3.05L119.83 3.05ZM119.83 4.21Q119.23 4.21 118.79 4.43Q118.34 4.65 118.10 5.05Q117.86 5.45 117.86 5.98L117.86 5.98Q117.86 6.52 118.10 6.93Q118.34 7.34 118.78 7.56Q119.22 7.78 119.83 7.78L119.83 7.78Q120.40 7.78 120.85 7.57Q121.30 7.35 121.56 6.97Q121.81 6.59 121.81 6.10L121.81 6.10Q121.81 5.55 121.57 5.13Q121.32 4.70 120.87 4.45Q120.42 4.21 119.83 4.21L119.83 4.21ZM129.42 3.05Q130.27 3.05 130.99 3.45Q131.70 3.84 132.14 4.58L132.14 4.58Q132.74 5.61 132.74 7.23L132.74 7.23Q132.74 8.58 132.17 9.78Q131.59 10.98 130.34 11.79Q129.09 12.59 127.15 12.67L127.15 12.67Q126.94 12.68 126.82 12.53Q126.70 12.38 126.70 11.98L126.70 11.98Q126.70 11.74 126.77 11.64Q126.84 11.53 126.98 11.52L126.98 11.52Q129.06 11.41 130.18 10.45Q131.30 9.48 131.52 7.83L131.52 7.83Q131.11 8.36 130.52 8.65Q129.92 8.94 129.25 8.94L129.25 8.94Q128.39 8.94 127.70 8.57Q127.01 8.20 126.61 7.53Q126.22 6.86 126.22 5.98L126.22 5.98Q126.22 5.14 126.62 4.47Q127.02 3.80 127.75 3.43Q128.48 3.05 129.42 3.05L129.42 3.05ZM129.42 4.21Q128.83 4.21 128.38 4.43Q127.94 4.65 127.70 5.05Q127.45 5.45 127.45 5.98L127.45 5.98Q127.45 6.52 127.69 6.93Q127.93 7.34 128.37 7.56Q128.81 7.78 129.42 7.78L129.42 7.78Q129.99 7.78 130.45 7.57Q130.90 7.35 131.15 6.97Q131.41 6.59 131.41 6.10L131.41 6.10Q131.41 5.55 131.16 5.13Q130.91 4.70 130.46 4.45Q130.02 4.21 129.42 4.21L129.42 4.21ZM141.86 3.23Q142.13 3.23 142.24 3.35Q142.35 3.47 142.35 3.76L142.35 3.76Q142.35 3.95 142.30 4.07L142.30 4.07L138.98 12.31Q138.91 12.49 138.75 12.58Q138.60 12.67 138.39 12.67L138.39 12.67Q138.11 12.67 137.93 12.56Q137.76 12.45 137.76 12.26L137.76 12.26Q137.76 12.15 137.80 12.06L137.80 12.06L140.98 4.29L137.27 4.29L137.27 5.43Q137.27 5.70 137.14 5.82Q137.01 5.94 136.69 5.94L136.69 5.94Q136.37 5.94 136.23 5.82Q136.10 5.70 136.10 5.43L136.10 5.43L136.10 3.76Q136.10 3.47 136.21 3.35Q136.33 3.23 136.59 3.23L136.59 3.23L141.86 3.23Z"/>
</svg>