<svg xmlns="http://www.w3.org/2000/svg" width="660" height="660" fill-rule="evenodd" clip-rule="evenodd" image-rendering="optimizeQuality" shape-rendering="geometricPrecision" text-rendering="geometricPrecision">
  <path fill="#fefffe" d="M293 58c12-2 22 3 28 14 10-8 20-7 30 2 3 3 4 6 5 11 11-3 19 1 24 13 14-17 31-20 51-9 4 4 9 9 12 15 12-11 25-12 39-4 7 6 11 13 12 23 21-4 33 5 37 26-1 2-2 4-1 7 20 0 29 10 27 31l-3 7c10 6 14 15 11 28l-6 10c4 6 6 13 4 21 20 8 28 23 25 45l-5 11c19 9 25 23 18 44l-8 11c9 11 10 23 3 37-4 4-9 7-14 9 7 10 7 21 0 32-6 6-14 9-22 9-1 12-7 19-18 22h-11c-2 8-6 13-14 15 1 27-11 42-38 45 2 26-11 38-37 36l-4-1c-7 17-19 24-36 20l-10-5c-7 13-18 18-32 14-7-2-11-7-14-12-16 7-28 3-34-13-13 3-21-1-25-13-13 15-29 18-47 10-7-4-13-9-16-16-8 7-18 10-28 7-14-4-21-13-22-26-25 3-37-8-36-32-13 0-21-5-27-15-3-9-2-17 4-25-12-7-15-17-11-29l5-7c-5-7-7-14-4-21-26-13-32-32-20-57-20-8-26-22-20-42 3-5 6-9 10-12-10-12-11-24-4-37 4-6 9-9 15-11-8-13-7-25 5-35 5-3 10-4 17-4 1-19 10-27 29-23 1-8 6-13 14-14-2-28 10-43 38-46-4-18 3-30 20-36 7-1 14-1 21 2 5-18 17-25 36-22l9 6c4-9 9-14 18-16Zm23 43c8 9 18 11 30 7l2 3c-10 6-16 16-17 28-11 1-19 6-26 14-5 8-6 17-1 27-15 6-21 18-17 34l6 9c-9 6-12 14-10 25 2 4 6 8 11 11l-4 6c-1 5 0 11 2 17l11 8c-2 5-1 9 3 13-4 4-7 9-7 16-4-1-8 0-11 1-5-13-14-17-27-11-4-11-11-16-22-15 1-16-6-25-21-28 3-15-1-26-12-35 5-9 6-18 3-28-1-4-3-7-5-9 17-12 22-28 16-47 15-3 24-13 27-28 17 4 29-2 36-17 5 3 10 5 16 5 7 0 12-2 17-6Zm215 132-12-6c-9-1-17 0-24 4-11-16-25-19-41-11l-8 8c-10-9-21-10-32-3-5 4-8 9-10 15-18-7-28 0-30 19-16-1-23 7-22 23-5 0-8 2-9 7l-16 2-6-7c4-5 6-11 4-18-1-5-4-9-8-11 7-8 8-17 3-26 12-7 17-18 14-32 13-4 21-13 23-27 15 0 26-7 33-20 18 9 34 6 49-8 9 12 21 15 37 11 4 16 15 24 33 23-2 13 4 23 17 28-5 11-4 20 5 29Zm-381-23c-1 14 5 24 18 31-9 17-5 30 11 40 3 2 7 2 11 3-1 22 9 32 32 31 0 8 4 15 13 18h14l4-2c5 8 12 12 23 10l7-4c4 4 10 6 16 4 2 5 5 9 10 12-5 2-7 5-6 10-10-3-17 0-22 9-1 2-2 5-1 8-12-2-20 2-25 12-13-8-24-7-35 3-11-10-22-12-34-6-8-14-19-20-34-18-2-22-13-35-33-39 5-15 3-27-8-37 9-10 11-21 7-33l-4-7c12-6 18-16 16-29 10-1 17-6 20-16Zm381 23c1-1 2 0 3 1-2 1-3 0-3-1Zm-84 30 11 6c8 3 16 3 24 0 7 13 19 19 35 18 0 21 11 33 32 37-7 15-4 28 8 39-9 9-11 20-7 33 1 2 2 4 5 6-14 5-20 15-17 30-13 1-20 8-21 21 3-17-3-29-16-38 6-14 3-26-7-37-5-3-10-5-15-4 0-24-11-34-33-31-2-17-11-23-27-19l-5 3c-6-11-14-15-25-11l-5 4-4-4-11-1c-2-5-4-10-7-13 2-2 3-5 3-7 14 1 21-5 23-18 10 1 19-2 25-11 10 6 20 6 31 0l3-3Zm-78 75 11 1c5 11 14 14 26 10 4 9 12 14 23 15-1 15 6 24 21 27-4 14 0 26 13 34-7 9-8 18-5 29 1 3 3 6 7 9-18 11-24 27-17 47-16 2-25 12-27 28-18-5-30 1-37 18-9-7-18-8-28-3l-4 4c-8-11-18-13-30-7l-2-5c10-6 16-16 17-28 17-2 27-12 30-29l-3-11c14-6 20-16 18-31-1-5-4-9-6-12 11-10 12-21 4-32l-6-5c6-13 3-22-9-29 2-7 1-12-5-16 4-4 7-9 9-14Zm-42 25h16c0 3 2 7 5 10-8 10-7 20 3 29-7 8-8 17-2 26-14 7-19 18-15 34-14 2-22 11-22 25-17-2-28 5-34 21-18-10-35-8-49 7a31 31 0 0 0-37-10c-5-17-16-25-33-23 1-14-5-24-17-29 5-12 2-21-7-29l1-1c11 9 24 10 37 3 10 15 24 19 41 10l7-7c7 6 15 8 25 6 9-3 15-9 18-17 18 5 28-1 31-19 15-1 22-9 21-24 6-1 10-5 11-12Z" />
</svg>
